<?xml version="1.0" encoding="utf-8"?>
<!-- Generator: Adobe Illustrator 16.0.0, SVG Export Plug-In . SVG Version: 6.00 Build 0)  -->
<!DOCTYPE svg PUBLIC "-//W3C//DTD SVG 1.1//EN" "http://www.w3.org/Graphics/SVG/1.1/DTD/svg11.dtd">
<svg version="1.1" id="Layer_1" xmlns="http://www.w3.org/2000/svg" xmlns:xlink="http://www.w3.org/1999/xlink" x="0px" y="0px"
	 width="369.8px" height="129.3px" viewBox="0 0 369.8 129.3" style="enable-background:new 0 0 369.8 129.3;" xml:space="preserve"
	>
<g>
	<path style="fill:#799900;" d="M120,45.9c0-1.2,1-2.2,2.2-2.2h0.4c0.9,0,1.6,0.5,2.2,1.3l22.9,33.8L170.7,45
		c0.5-0.8,1.3-1.3,2.2-1.3h0.4c1.2,0,2.2,1,2.2,2.2V101c0,1.2-1,2.2-2.2,2.2c-1.2,0-2.2-1-2.2-2.2V51.7l-21.6,31.4
		c-0.5,0.8-1.1,1.1-1.8,1.1c-0.8,0-1.3-0.3-1.8-1.1l-21.6-31.4v49.3c0,1.2-0.9,2.1-2.1,2.1s-2.1-0.9-2.1-2.1"/>
	<path style="fill:#799900;" d="M187,45.2c0-1.4,1.1-2.5,2.5-2.5c1.4,0,2.6,1.1,2.6,2.5v1.4c0,1.4-1.2,2.5-2.6,2.5
		c-1.4,0-2.5-1.1-2.5-2.5 M187.5,61.7c0-1.2,0.8-2.1,2-2.1c1.2,0,2.1,0.8,2.1,2.1v39.3c0,1.3-0.8,2.1-2,2.1c-1.2,0-2.1-0.8-2.1-2.1
		V61.7z"/>
	<path style="fill:#799900;" d="M85.7,23.2c-0.2,0-4.2,1.4-10.4,4.2c3.4,14.2,6.9,33.5,3.8,45.2c-2,7.2-5.9,12.9-10.7,17.1l-1,0.9
		l-0.4,0.3c0,0-5.6,3.8-8.1,4.9l0,0c-0.8,0.3-1.6,0.7-2.4,0.9c-0.3,0.1-0.6,0.2-0.9,0.3c-0.4,0.1-0.9,0.3-1.3,0.4
		c-0.5,0.1-1,0.2-1.5,0.3l-0.1,0c-1.1,0.2-2.2,0.2-3.2,0.3c-0.3,0-0.7,0.1-1.1,0.1c-0.4,0-0.7,0-1.1-0.1c-1-0.1-1.9-0.1-3-0.2
		l-0.2,0c-0.6-0.1-1.1-0.2-1.7-0.4c-0.4-0.1-0.8-0.2-1.2-0.3c-0.4-0.1-0.7-0.2-1.1-0.3c-0.8-0.3-1.5-0.6-2.3-0.9
		c0,0-3.9-1.9-5.7-3.1l0,0c-0.6-0.4-2.9-2.2-2.9-2.2c-5.2-4.3-9.6-10.3-11.6-18c-3.1-11.8,0.4-31,3.8-45.2
		c-6.2-2.8-10.2-4.1-10.4-4.2C2.1,57.4,8.1,77,17.7,88.1c12,13.9,24.3,15.1,30.6,15.1c6.3,0,18.6-1.1,30.6-15.1
		C88.5,77,94.5,57.4,85.7,23.2"/>
	<path style="fill:#F7323F;" d="M38.9,24.9c2.9,3.6,6.2,7.7,9.4,11.9c3.2-4.3,6.5-8.3,9.4-11.9L48.3,1.3L38.9,24.9"/>
	<path style="fill:#799900;" d="M38.9,24.9C31.4,15.6,26,9,26,9s-2.2,7.9-4.7,18.4c3.8,1.7,8.5,4,13.6,7
		C36.4,31.1,37.7,27.9,38.9,24.9"/>
	<path style="fill:#96AD46;" d="M29.1,90.5c-2.8-2.3-5.4-5.2-7.4-8.5c-1.7-2.8-3.1-5.9-4.1-9.3c0,0,0-0.1,0-0.1c0,0,0-0.1,0-0.1
		c0,0,0,0,0,0c-0.8-3.2-1.2-7-1.2-11c0-7.5,1.2-16,2.8-23.9c0,0,0,0,0,0c0,0,0,0,0-0.1c0.7-3.5,1.4-6.9,2.2-10.1
		c3.8,1.7,8.5,4,13.6,7c-0.5,1.2-1,2.3-1.5,3.5c-2.6,6.7-5.4,13.6-7.5,20.3c-1.9,6-3.2,11.7-3.2,17c0,4.3,0.9,8.3,3.1,11.6
		C26.8,88.1,27.8,89.3,29.1,90.5"/>
	<path style="fill:#799900;" d="M19.1,37.5c0.7-3.5,1.4-6.9,2.2-10.1C20.6,30.6,19.8,34,19.1,37.5 M19.1,37.6
		C19.1,37.6,19.1,37.5,19.1,37.6C19.1,37.5,19.1,37.6,19.1,37.6 M17.5,72.5C17.5,72.5,17.5,72.5,17.5,72.5
		C17.5,72.5,17.5,72.5,17.5,72.5 M17.6,72.5L17.6,72.5 M17.6,72.6L17.6,72.6 M29.2,90.6c-2.9-2.4-5.5-5.3-7.6-8.7
		c2.1,3.4,4.7,6.2,7.4,8.5C29.1,90.5,29.2,90.5,29.2,90.6"/>
	<path style="fill:#96AD46;" d="M45.3,40.8c-3.6-2.4-7.1-4.5-10.4-6.4c1.4-3.3,2.7-6.5,3.9-9.5c0.9,1,1.7,2.1,2.6,3.2
		c2.2,2.7,4.5,5.7,6.8,8.7c0,0,0,0-0.1,0.1C47.3,38.2,46.3,39.5,45.3,40.8"/>
	<path style="fill:#8F9556;" d="M41.5,28.1c-0.9-1.1-1.8-2.2-2.6-3.2c0,0,0,0,0,0C39.7,25.9,40.6,27,41.5,28.1"/>
	<path style="fill:#799900;" d="M75.3,27.4c-2.5-10.6-4.7-18.4-4.7-18.4s-5.3,6.7-12.8,15.9c1.2,3,2.5,6.2,3.9,9.5
		C66.8,31.4,71.4,29.1,75.3,27.4"/>
	<path style="fill:#96AD46;" d="M68.4,89.7c0.8-0.8,1.5-1.7,2.1-2.5c2.3-3.4,3.3-7.5,3.3-12c0-8.3-3.3-18.1-7-27.8
		c-1.3-3.4-2.7-6.9-4-10.3c-0.2-0.4-0.3-0.8-0.5-1.2c-0.2-0.5-0.4-1-0.6-1.5c0,0,0,0,0,0c5.2-2.9,9.8-5.2,13.6-7
		c2.5,10.3,5,23.3,5,34.1c0,4.1-0.4,7.9-1.2,11.2c-0.9,3.4-2.3,6.4-4,9.1C73.2,84.8,70.9,87.4,68.4,89.7"/>
	<path style="fill:#799900;" d="M68.4,89.7C68.4,89.7,68.4,89.7,68.4,89.7c2.5-2.3,4.8-4.9,6.7-8C73.2,84.8,70.9,87.5,68.4,89.7"/>
	<path style="fill:#96AD46;" d="M48.3,36.8L48.3,36.8L48.3,36.8 M51.3,40.8c-1-1.3-2-2.7-3-4c1.5-2,3-3.9,4.4-5.7
		c1.2-1.6,2.4-3.1,3.6-4.5c0.5-0.6,0.9-1.1,1.4-1.7c0,0.1,0.1,0.2,0.1,0.3c1.2,2.9,2.5,6,3.8,9.2h0h0c-2.9,1.6-5.9,3.5-9,5.5
		C52.2,40.2,51.7,40.5,51.3,40.8"/>
	<path style="fill:#8F9556;" d="M56.3,26.6c0.5-0.6,0.9-1.1,1.4-1.7C57.2,25.4,56.8,26,56.3,26.6 M48.3,36.8L48.3,36.8
		c1.5-2,3-3.9,4.4-5.7C51.3,32.9,49.8,34.9,48.3,36.8"/>
	<path style="fill:#799900;" d="M61.6,34.4c-1.3-3.2-2.6-6.2-3.8-9.2C59,28.1,60.3,31.2,61.6,34.4L61.6,34.4"/>
	<polyline style="fill:#7F9D17;" points="61.6,34.4 61.6,34.4 61.6,34.4 61.6,34.4 61.6,34.4 	"/>
	<path style="fill:#A4B75E;" d="M45.1,98c-0.3,0-0.6-0.1-0.8-0.1l-0.2,0c-0.4-0.1-0.9-0.2-1.3-0.3c-0.1,0-0.2-0.1-0.3-0.1l-0.5-0.1
		c-0.2-0.1-0.4-0.1-0.6-0.2c0,0,0,0-0.1,0L40.6,97l-0.5-0.2c-0.4-0.2-0.9-0.3-1.3-0.5c-0.1,0-0.2-0.1-0.3-0.1l-0.7-0.3
		c0,0-3.6-1.7-5.5-3c-0.1,0-0.1-0.1-0.2-0.1l0,0l0,0c-0.6-0.4-2.9-2.2-2.9-2.2c0,0,0,0,0,0c-1.3-1.2-2.4-2.4-3.3-3.8
		c-2.2-3.4-3.1-7.3-3.1-11.6c0-5.2,1.3-11,3.2-17c2.1-6.7,4.9-13.6,7.5-20.3c0.5-1.2,1-2.4,1.5-3.5c3.3,1.9,6.8,4,10.4,6.4
		c-2.9,3.9-5.7,7.9-8.3,11.9c-0.3,0.5-0.6,1-0.9,1.4c-3.5,5.9-5.5,11.3-6.2,16.2c-0.3,1.7-0.4,3.3-0.4,4.8
		c0,10.9,6.1,18.4,12.3,21.6c0.8,0.5,1.8,0.8,2.8,1.1C44.8,97.9,45,98,45.1,98"/>
	<path style="fill:#799900;" d="M32.2,92.8L32.2,92.8L32.2,92.8c-1.1-0.7-2-1.4-2.9-2.2c0,0,0,0,0,0c0,0,0,0,0,0
		C29.2,90.6,31.6,92.4,32.2,92.8L32.2,92.8 M37.9,95.9l-0.1-0.1c-1.8-0.8-3.6-1.8-5.3-2.9C34.3,94.2,37.9,95.9,37.9,95.9 M38.8,96.3
		c-0.1,0-0.1-0.1-0.2-0.1l-0.1,0C38.7,96.3,38.7,96.3,38.8,96.3 M41.9,97.3l-0.2,0l-0.5-0.1l-0.1,0c0,0,0,0,0.1,0
		C41.5,97.2,41.7,97.3,41.9,97.3 M45.4,98.1C45,98,44.7,98,44.3,97.9l-0.2,0l-0.7-0.1c-0.2-0.1-0.4-0.1-0.7-0.2
		c0.4,0.1,0.9,0.2,1.3,0.3l0.2,0c0.3,0.1,0.6,0.1,0.8,0.1C45.2,98,45.3,98,45.4,98.1"/>
	<path style="fill:#829F1F;" d="M25.9,86.8c-2.2-3.4-3.1-7.3-3.1-11.6c0-5.2,1.3-11,3.2-17c-1.9,6-3.2,11.7-3.2,17
		C22.9,79.5,23.7,83.4,25.9,86.8"/>
	<path style="fill:#A4B75E;" d="M51.6,98c1.2-0.2,2.3-0.6,3.2-1.2c6.2-3.2,12.3-10.7,12.3-21.6c0-2-0.2-4.2-0.7-6.4
		c-0.9-4.5-2.8-9.3-6-14.6c-0.4-0.6-0.8-1.3-1.2-1.9c-2-3-4.1-6.1-6.2-9c-0.6-0.8-1.2-1.6-1.8-2.4c0.5-0.3,0.9-0.6,1.4-0.9
		c3.1-2,6.1-3.9,9-5.5c0.2,0.5,0.4,1,0.6,1.5c0.2,0.4,0.3,0.8,0.5,1.2c1.3,3.4,2.7,6.8,4,10.3c3.7,9.8,7,19.5,7,27.8
		c0,4.5-0.9,8.5-3.3,12c-0.6,0.9-1.3,1.8-2.1,2.6c0,0,0,0,0,0l-1,0.9l-0.4,0.3c0,0-5.6,3.8-8.1,4.9l0,0c0,0,0,0-0.1,0
		c-0.2,0.1-0.4,0.2-0.6,0.2c-0.4,0.1-0.7,0.3-1.1,0.4c-0.2,0.1-0.3,0.1-0.5,0.2c-0.1,0-0.1,0-0.2,0.1c0,0,0,0-0.1,0l-0.3,0.1
		l-0.5,0.2c0,0,0,0,0,0c0,0-0.1,0-0.1,0c-0.3,0.1-0.6,0.2-1,0.3l-0.1,0c-0.1,0-0.1,0-0.2,0c-0.5,0.1-1,0.2-1.5,0.3l-0.1,0
		C52.2,97.9,51.9,97.9,51.6,98"/>
	<path style="fill:#799900;" d="M58.8,95.9C58.8,95.9,58.8,95.9,58.8,95.9l0.1,0c2.5-1.1,8.1-4.9,8.1-4.9l0.4-0.3l1-0.9c0,0,0,0,0,0
		c0,0,0,0,0,0c-0.4,0.3-0.7,0.6-1,0.9l-0.4,0.3c-2.6,2.1-5.3,3.7-8.1,4.9L58.8,95.9C58.8,95.9,58.8,95.9,58.8,95.9 M57.1,96.6
		c0.4-0.1,0.7-0.3,1.1-0.4c-0.2,0.1-0.4,0.2-0.7,0.3C57.4,96.5,57.2,96.5,57.1,96.6 M56.4,96.8C56.4,96.8,56.4,96.8,56.4,96.8
		c0.1,0,0.2-0.1,0.3-0.1C56.6,96.8,56.5,96.8,56.4,96.8L56.4,96.8 M55.4,97.1C55.5,97.1,55.5,97.1,55.4,97.1c0.1,0,0.1,0,0.1,0
		L55.4,97.1C55.5,97.1,55.5,97.1,55.4,97.1 M51.1,98.1c0.2,0,0.3-0.1,0.4-0.1c0.3,0,0.7-0.1,1-0.1l0.1,0c0.5-0.1,1-0.2,1.5-0.3
		c0.1,0,0.1,0,0.2,0l-0.2,0l-0.7,0.2l-0.8,0.2l-0.1,0C52.1,97.9,51.6,98,51.1,98.1"/>
	<path style="fill:#829F1F;" d="M62.3,35.9c-0.2-0.5-0.4-1-0.6-1.5C61.8,34.9,62.1,35.4,62.3,35.9 M70.5,87.1
		c2.3-3.4,3.3-7.5,3.3-12c0-8.3-3.3-18.1-7-27.8c3.7,9.8,7,19.5,7,27.8C73.7,79.6,72.8,83.7,70.5,87.1"/>
	<path style="fill:#829F1F;" d="M52.6,39.9c3.1-2,6.1-3.9,9-5.5l0,0C58.8,36,55.7,37.8,52.6,39.9"/>
	<polyline style="fill:#7B9B08;" points="61.6,34.4 61.6,34.4 61.6,34.4 61.6,34.4 	"/>
	<path style="fill:#799900;" d="M51.3,40.8c-1-1.3-2-2.7-3-4c-1,1.3-2,2.6-3,4c1,0.7,2,1.3,3,2C49.3,42.1,50.3,41.4,51.3,40.8"/>
	<path style="fill:#B8C680;" d="M48.3,98.2c-0.4,0-0.7,0-1.1-0.1c-0.7,0-1.4,0-2.1-0.1c-0.2,0-0.3-0.1-0.5-0.1c-1-0.2-2-0.6-2.8-1.1
		c-6.2-3.2-12.3-10.7-12.3-21.6c0-1.5,0.1-3.2,0.4-4.8c0.8-4.9,2.7-10.3,6.2-16.2c0.3-0.5,0.6-1,0.9-1.4c2.6-4,5.4-8,8.3-11.9
		c1,0.7,2,1.3,3,2c1-0.7,2-1.4,3-2c0.6,0.8,1.2,1.6,1.8,2.4c2.1,3,4.3,6,6.2,9c0.4,0.6,0.8,1.3,1.2,1.9c3.2,5.3,5,10.2,6,14.6
		c0.5,2.3,0.7,4.4,0.7,6.4c0,10.9-6.1,18.4-12.3,21.6c-0.9,0.5-2,0.9-3.2,1.2c-0.8,0.1-1.5,0.1-2.2,0.1C49,98.1,48.7,98.2,48.3,98.2
		"/>
	<path style="fill:#799900;" d="M48.4,98.3h-0.2c-0.9,0-1.9-0.1-2.8-0.2c-0.1,0-0.2,0-0.3-0.1c0.7,0.1,1.4,0.1,2.1,0.1
		c0.4,0,0.7,0.1,1.1,0.1c0.4,0,0.7,0,1.1-0.1c0.7,0,1.5-0.1,2.2-0.1c-0.1,0-0.3,0.1-0.4,0.1C50.2,98.2,49.3,98.3,48.4,98.3"/>
	<line style="fill:#86A229;" x1="51.3" y1="40.8" x2="51.3" y2="40.8"/>
	<path style="fill:#8DA736;" d="M37,52.7c2.6-4,5.4-8,8.3-11.9C42.5,44.7,39.6,48.7,37,52.7 M44.6,97.9c-1-0.2-2-0.6-2.8-1.1
		c-6.2-3.2-12.3-10.7-12.3-21.6c0-1.5,0.1-3.2,0.4-4.8c-0.3,1.7-0.4,3.3-0.4,4.8c0,10.9,6.2,18.4,12.3,21.6
		C42.7,97.3,43.6,97.6,44.6,97.9"/>
	<path style="fill:#8DA736;" d="M53,43.2c-0.6-0.8-1.2-1.6-1.8-2.4C51.8,41.6,52.4,42.4,53,43.2 M66.4,68.7c-0.9-4.5-2.8-9.3-6-14.6
		c-0.4-0.6-0.8-1.3-1.2-1.9c0.4,0.6,0.8,1.3,1.2,1.9C63.6,59.4,65.5,64.3,66.4,68.7"/>
	<path style="fill:#C4D600;" d="M46.7,128.3v-10.6c0,0,0.3-7.9-7.5-10.5c-7.8-2.7-16.6-6.7-22.5-13.7c-5.9-7-7.8-11.4-10-17.8
		c-2.2-6.4-4-17.4-4.1-27.6c0,0-2.6,11-1.1,23.3c1.5,12.2,5,22.6,11.2,31.5c6.2,8.9,13.4,12,15.4,14c2.1,2,4.2,4.7,3.1,11.4"/>
	<path style="fill:#C4D600;" d="M49.9,128.3v-10.6c0,0-0.3-7.9,7.5-10.5c7.8-2.7,16.6-6.7,22.5-13.7c5.9-7,7.8-11.4,10-17.8
		c2.2-6.4,4-17.4,4.1-27.6c0,0,2.6,11,1.1,23.3c-1.5,12.2-5,22.6-11.2,31.5c-6.2,8.9-13.4,12-15.4,14c-2.1,2-4.2,4.7-3.1,11.4"/>
	<path style="fill:#799900;" d="M201.2,73.6v-0.2c0-16.6,12.4-30.4,29.4-30.4c9.7,0,15.9,3.4,21.6,8.2c0.4,0.4,0.8,1,0.8,1.8
		c0,1.2-1.1,2.2-2.3,2.2c-0.6,0-1.2-0.3-1.5-0.6c-4.9-4.5-10.5-7.7-18.7-7.7c-14.1,0-24.8,11.5-24.8,26.3v0.2
		c0,14.9,10.8,26.5,24.9,26.5c8,0,13.6-2.9,19.2-8.2c0.3-0.3,0.8-0.7,1.5-0.7c1.1,0,2.1,1,2.1,2.1c0,0.7-0.3,1.2-0.7,1.5
		c-6,5.5-12.4,9.2-22.3,9.2C213.6,103.8,201.2,90.5,201.2,73.6"/>
	<path style="fill:#799900;" d="M258.9,90.4v-0.2c0-8.9,7.7-14,18.7-14c6,0,10.1,0.8,14.2,1.9v-1.9c0-8.7-5.3-13.1-14.1-13.1
		c-4.7,0-8.7,1.2-12.2,2.9c-0.3,0.2-0.7,0.3-0.9,0.3c-1,0-1.9-0.9-1.9-1.9c0-1,0.8-1.7,1.2-1.8c4.4-1.9,8.7-3.2,14.1-3.2
		c5.8,0,10.4,1.6,13.5,4.7c2.9,2.9,4.4,6.8,4.4,12.1v25c0,1.3-0.8,2.1-2,2.1c-1.2,0-2-0.8-2-2.1v-5.4c-2.9,4.1-8.2,8.2-16.4,8.2
		C267.5,103.8,258.9,99.3,258.9,90.4 M291.9,86.8v-4.9c-3.6-0.9-8.4-1.9-14.5-1.9c-9.1,0-14.1,4-14.1,10v0.2c0,6.2,5.9,9.8,12.4,9.8
		C284.4,100,291.9,94.6,291.9,86.8"/>
	<path style="fill:#799900;" d="M305,61.7c0-1.2,0.8-2.1,2-2.1c1.2,0,2.1,0.8,2.1,2.1v10.4c3.7-8.3,11.2-12.9,17.2-12.9
		c1.3,0,2.2,1,2.2,2.3c0,1.2-0.8,2.2-2.2,2.3c-9.1,0.8-17.2,7.7-17.2,21.4v15.8c0,1.2-0.8,2.1-2,2.1c-1.2,0-2.1-0.8-2.1-2.1"/>
	<path style="fill:#799900;" d="M348.9,103.8c-11.3,0-21-9-21-22.4v-0.2c0-12.4,8.7-22.4,20.3-22.4c12,0,19.7,9.9,19.7,22.2
		c0,1-1,1.9-2,1.9h-33.6C333,93.7,340.6,100,349,100c6.1,0,10.4-2.5,13.9-5.9c0.3-0.3,0.8-0.6,1.3-0.6c1.1,0,2,0.8,2,1.9
		c0,0.4-0.2,0.9-0.7,1.4C361.4,101.1,356.6,103.8,348.9,103.8 M363.4,79.4c-0.6-8.7-5.5-16.6-15.4-16.6c-8.5,0-15,7.1-15.8,16.6
		H363.4z"/>
</g>
</svg>
